<svg width="763" height="763" viewBox="0 0 763 763" fill="none" xmlns="http://www.w3.org/2000/svg">
<g clip-path="url(#clip0_15_2)">
<rect width="763" height="763" rx="54.5" fill="white"/>
<path d="M-231.625 -46.325H773.9V1002.8H-231.625V-46.325Z" fill="url(#paint0_linear_15_2)"/>
<path d="M213.506 217.937C221.588 228.223 236.479 230.01 246.766 221.928C257.052 213.845 258.839 198.955 250.756 188.668L183.856 103.524C175.773 93.2378 160.883 91.4511 150.596 99.5335C140.31 107.616 138.523 122.507 146.605 132.793L213.506 217.937Z" fill="#D5F0AC"/>
<path d="M211.506 218.038C219.588 228.324 234.479 230.111 244.766 222.029C255.052 213.946 256.839 199.055 248.756 188.769L181.856 103.625C173.773 93.3388 158.883 91.552 148.596 99.6344C138.31 107.717 136.523 122.608 144.605 132.894L211.506 218.038Z" fill="#A5C377"/>
<g filter="url(#filter0_d_15_2)">
<path d="M545.722 615.908C481.864 666.084 410.119 681.574 338.658 664.565C280.121 650.312 233.652 615.817 204.763 565.358C173.783 512.238 178.534 452.561 180.814 403.431C183.094 354.302 175.206 319.617 151.164 289.018C109.351 235.804 119.423 171.945 172.638 130.132C225.853 88.3193 290.282 93.6401 332.094 146.855C356.137 177.454 387.971 193.323 436.245 202.73C484.519 212.137 543.627 221.639 587.91 264.306C630.103 304.312 652.625 357.622 652.626 417.87C652.246 491.326 620.223 557.371 556.365 607.546L545.722 615.908Z" fill="#F3FFE2"/>
</g>
<path d="M150.47 126.83C146.889 161.443 124.305 183.963 92.3937 189.867C97.6708 165.557 112.873 143.194 135.142 132.609C140.073 129.437 144.91 127.176 150.47 126.83Z" fill="#EEFFD4"/>
<path d="M148.47 126.83C144.889 161.443 122.305 183.963 90.3937 189.867C95.6708 165.557 110.873 143.194 133.142 132.609C138.073 129.437 142.91 127.176 148.47 126.83Z" fill="#05BE5C"/>
</g>
<defs>
<filter id="filter0_d_15_2" x="100.764" y="102.379" width="551.862" height="601.524" filterUnits="userSpaceOnUse" color-interpolation-filters="sRGB">
<feFlood flood-opacity="0" result="BackgroundImageFix"/>
<feColorMatrix in="SourceAlpha" type="matrix" values="0 0 0 0 0 0 0 0 0 0 0 0 0 0 0 0 0 0 127 0" result="hardAlpha"/>
<feOffset dx="-13.625" dy="21.8"/>
<feGaussianBlur stdDeviation="5.45"/>
<feComposite in2="hardAlpha" operator="out"/>
<feColorMatrix type="matrix" values="0 0 0 0 0 0 0 0 0 0 0 0 0 0 0 0 0 0 0.1 0"/>
<feBlend mode="normal" in2="BackgroundImageFix" result="effect1_dropShadow_15_2"/>
<feBlend mode="normal" in="SourceGraphic" in2="effect1_dropShadow_15_2" result="shape"/>
</filter>
<linearGradient id="paint0_linear_15_2" x1="839.915" y1="201.069" x2="-572.25" y2="1139.05" gradientUnits="userSpaceOnUse">
<stop stop-color="#0BE06F"/>
<stop offset="1" stop-color="#20FE5E"/>
</linearGradient>
<clipPath id="clip0_15_2">
<rect width="763" height="763" rx="54.5" fill="white"/>
</clipPath>
</defs>
</svg>
