<svg width="332" height="330" viewBox="0 0 332 330" fill="none" xmlns="http://www.w3.org/2000/svg">
<rect x="62.9316" y="125.665" width="104.017" height="104.017" rx="6.44732" fill="#FFFCF4"/>
<path d="M233.288 326.2C233.891 326.183 234.69 326.088 235.261 326.304C235.847 326.525 236.663 327.137 236.859 327.784C237.033 328.356 236.953 328.532 236.721 329.038C236.052 329.462 235.787 329.417 235.012 329.446C233.708 329.408 232.698 329.455 231.571 328.729C231.431 328.45 231.282 328.337 231.389 328.013C231.649 327.221 232.62 326.633 233.288 326.2Z" fill="#FAF6FA"/>
<path d="M231.666 5.33862C231.007 4.31479 230.269 2.93162 230.627 1.66322C230.809 1.01376 231.178 0.52892 231.802 0.247817C232.56 -0.0934614 233.497 -0.0616569 234.262 0.240078C234.918 0.498831 235.518 0.967339 235.749 1.65677C236.015 2.45409 235.657 3.24281 235.214 3.89915C234.496 4.96339 233.4 5.19893 232.218 5.46628C232.505 8.45096 238.689 15.8465 240.795 18.4336C253.664 34.2416 267.957 49.0493 282.632 63.178C292.592 72.9183 302.925 82.2458 313.631 91.1603C316.872 93.8355 321.813 98.0267 325.776 99.1923C326.318 97.9377 326.705 96.7277 328.114 96.2309C328.854 95.9695 329.627 96.0043 330.315 96.3946C330.814 96.6753 331.226 97.1197 331.398 97.6733C331.57 98.2308 331.446 98.7672 331.17 99.2632C330.676 100.148 329.292 100.77 328.338 100.918C327.414 101.062 326.369 100.961 325.432 100.936C321.013 121.583 320.891 142.972 320.962 164.007C321.022 181.813 321.399 199.663 323.554 217.362C323.861 219.723 324.335 222.051 324.977 224.344C325.213 225.204 325.686 226.181 325.802 227.048C326.735 227.945 327.878 228.559 328.978 229.219L332 230.614V233.704C331.57 233.976 331.136 234.259 330.68 234.49C330.092 234.791 329.219 235.064 328.592 234.737C327.573 234.204 327.104 232.065 326.739 231.016C322.518 231.975 313.71 239.554 310.171 242.537C301.629 249.868 293.302 257.435 285.188 265.238C277.075 273.04 269.188 281.065 261.528 289.314C255.659 295.529 250.02 301.947 244.612 308.567C241.556 312.318 238.506 316.053 235.922 320.152C234.938 321.712 233.992 323.294 232.99 324.843C216.63 321.351 200.009 320.866 183.356 320.447C156.239 319.766 127.16 319.876 100.535 325.162L100.124 325.834L99.8877 325.689C100.06 325.251 99.999 325.073 99.8039 324.66C91.9007 307.934 22.3556 238.418 6.87601 233.028C5.90848 233.993 5.65188 235.767 4.29321 236.27C3.63214 236.515 2.90316 236.475 2.2825 236.133C2.20628 236.09 2.13249 236.043 2.06114 235.993C1.98978 235.942 1.92116 235.889 1.85526 235.831C1.78935 235.774 1.72659 235.713 1.66699 235.65C1.6071 235.586 1.55065 235.519 1.49764 235.45C1.44463 235.38 1.39535 235.309 1.34979 235.234C1.30394 235.16 1.2621 235.083 1.22428 235.004C1.18617 234.926 1.15221 234.845 1.12241 234.763C1.09261 234.681 1.06711 234.598 1.0459 234.513C0.838729 233.696 1.03988 232.851 1.49549 232.154C2.64398 230.396 4.8451 230.015 6.73072 229.561C9.30063 220.002 9.58559 209.378 10.122 199.514C11.4643 174.824 11.6273 149.641 9.48245 124.997C8.75347 116.619 7.99741 107.907 5.69313 99.7945L5.3295 99.5826L5.51862 99.4176C6.26007 99.2078 6.98733 98.8768 7.66988 98.5188C12.5741 95.948 17.1922 91.7564 21.4358 88.2486C31.4051 80.0081 40.8706 71.0592 50.1165 62.0209C56.8375 55.5409 63.3716 48.8778 69.7189 42.0316C76.0663 35.1852 82.2167 28.1662 88.1703 20.9747C91.3261 17.0951 97.0242 10.463 98.4444 5.78477C97.4644 5.56772 96.4281 5.125 95.7365 4.37711C95.2791 3.88282 95.0208 3.28537 95.0853 2.59894C95.1515 1.89403 95.5267 1.28197 96.0451 0.818189C96.6632 0.265868 97.5985 -0.104636 98.434 0.0264592C99.0753 0.126608 99.5872 0.536226 99.9049 1.08683C100.76 2.57014 100.346 4.06205 100.006 5.61414C107.879 8.20983 116.768 8.66114 124.974 9.20788C138.085 10.0813 151.123 10.3112 164.26 10.291C173.565 10.2768 182.812 10.0628 192.111 9.78513C200.518 9.53454 209.025 9.24613 217.381 8.25239C222.08 7.69362 227.127 6.67838 231.666 5.33862Z" fill="#FAF6FA"/>
<path d="M167.895 160.68C171.991 151.184 175.819 141.557 179.755 131.992L200.575 81.4355L221.306 31.0596C224.808 22.5577 228.465 14.0954 231.821 5.53717L232.218 5.46625C232.505 8.45093 238.689 15.8464 240.795 18.4335C253.664 34.2415 267.957 49.0493 282.632 63.178C292.592 72.9183 302.925 82.2457 313.631 91.1602C316.872 93.8354 321.813 98.0266 325.776 99.1923L325.819 99.28C325.174 100.206 184.781 157.293 170.655 163.389C169.864 162.232 169.089 161.429 167.895 160.68Z" fill="#3CB37D"/>
<path d="M98.4444 5.78476L98.7414 5.54449C99.6599 6.53867 110.118 32.3366 111.847 36.4521L146.477 118.905C152.33 132.839 158.053 146.845 164.056 160.715C162.808 161.434 162.128 162.191 161.395 163.418L5.69316 99.7945L5.32953 99.5826L5.51865 99.4175C6.26009 99.2078 6.98735 98.8768 7.66991 98.5188C12.5742 95.948 17.1922 91.7564 21.4358 88.2486C31.4051 80.0081 40.8706 71.0592 50.1165 62.0209C56.8375 55.5409 63.3716 48.8778 69.719 42.0316C76.0663 35.1851 82.2167 28.1662 88.1703 20.9747C91.3261 17.0951 97.0243 10.4629 98.4444 5.78476Z" fill="#3CB37D"/>
<path d="M161.427 167.253C162.177 168.471 162.836 169.16 164.031 169.927L120.793 275.796L107.278 308.88L103.096 319.135C102.282 321.129 101.546 323.263 100.535 325.162L100.124 325.834L99.8877 325.689C100.06 325.251 99.9991 325.073 99.8039 324.66C91.9008 307.934 22.3556 238.418 6.87604 233.028L6.08087 232.58C7.34068 231.526 12.7526 229.696 14.6592 228.894L40.9411 217.839L161.427 167.253Z" fill="#3CB37D"/>
<path d="M167.879 169.885C169.126 169.152 169.778 168.489 170.555 167.255L326.739 231.016C322.518 231.975 313.71 239.554 310.171 242.536C301.629 249.868 293.302 257.435 285.188 265.238C277.075 273.04 269.188 281.065 261.528 289.314C255.659 295.529 250.02 301.947 244.612 308.567C241.557 312.318 238.506 316.053 235.922 320.152C234.938 321.712 233.992 323.294 232.99 324.843L167.879 169.885Z" fill="#3CB37D"/>
<path d="M164.954 162.539C165.015 162.516 165.077 162.496 165.139 162.478C165.202 162.459 165.265 162.442 165.329 162.428C165.392 162.414 165.457 162.402 165.521 162.392C165.585 162.382 165.65 162.373 165.715 162.367C165.78 162.362 165.845 162.358 165.911 162.357C165.976 162.355 166.041 162.356 166.106 162.359C166.171 162.361 166.236 162.366 166.301 162.373C166.366 162.381 166.43 162.39 166.495 162.401C166.559 162.413 166.623 162.426 166.686 162.442C166.749 162.457 166.812 162.475 166.874 162.495C166.936 162.514 166.998 162.536 167.059 162.56C167.119 162.584 167.179 162.61 167.238 162.637C167.297 162.665 167.355 162.695 167.413 162.727C167.47 162.758 167.526 162.792 167.58 162.827C167.635 162.862 167.689 162.899 167.742 162.938C167.794 162.977 167.845 163.018 167.895 163.06C167.944 163.102 167.993 163.146 168.039 163.191C168.086 163.237 168.131 163.284 168.175 163.332C168.219 163.38 168.261 163.43 168.302 163.482C168.342 163.533 168.381 163.585 168.418 163.639C168.455 163.693 168.49 163.748 168.523 163.804C168.556 163.86 168.588 163.917 168.617 163.975C168.647 164.033 168.674 164.092 168.7 164.153C168.726 164.212 168.749 164.273 168.771 164.335C168.792 164.396 168.812 164.459 168.829 164.521C168.847 164.584 168.863 164.647 168.876 164.711C168.889 164.775 168.901 164.839 168.909 164.904C168.919 164.969 168.926 165.034 168.93 165.099C168.935 165.164 168.938 165.229 168.938 165.294C168.939 165.359 168.937 165.424 168.933 165.489C168.929 165.555 168.923 165.62 168.915 165.684C168.907 165.749 168.897 165.813 168.884 165.877C168.872 165.942 168.858 166.005 168.841 166.068C168.824 166.131 168.806 166.194 168.785 166.256C168.764 166.317 168.741 166.378 168.717 166.439C168.692 166.499 168.665 166.559 168.636 166.617C168.608 166.676 168.577 166.733 168.545 166.79C168.512 166.846 168.478 166.902 168.442 166.956C168.406 167.01 168.368 167.063 168.328 167.115C168.288 167.167 168.247 167.218 168.204 167.267C168.161 167.316 168.117 167.363 168.07 167.409C168.024 167.455 167.977 167.5 167.928 167.543C167.878 167.586 167.828 167.627 167.776 167.667C167.724 167.706 167.671 167.744 167.617 167.78C167.562 167.816 167.507 167.851 167.451 167.883C167.394 167.916 167.336 167.946 167.278 167.975C167.219 168.003 167.16 168.03 167.099 168.055C167.039 168.08 166.978 168.102 166.916 168.123C166.87 168.138 166.824 168.152 166.778 168.165C166.732 168.178 166.686 168.19 166.639 168.201C166.592 168.211 166.545 168.221 166.498 168.229C166.451 168.238 166.403 168.245 166.356 168.251C166.308 168.257 166.261 168.262 166.213 168.266C166.165 168.27 166.117 168.272 166.07 168.274C166.021 168.275 165.973 168.275 165.926 168.275C165.878 168.274 165.83 168.272 165.782 168.268C165.734 168.265 165.686 168.261 165.639 168.256C165.591 168.25 165.543 168.243 165.496 168.235C165.449 168.228 165.402 168.219 165.355 168.209C165.308 168.199 165.261 168.188 165.215 168.175C165.169 168.163 165.123 168.149 165.077 168.134C165.032 168.12 164.986 168.104 164.941 168.088C164.896 168.071 164.852 168.053 164.808 168.034C164.764 168.015 164.72 167.995 164.677 167.974C164.634 167.953 164.592 167.931 164.55 167.907C164.508 167.884 164.466 167.86 164.425 167.835C164.385 167.81 164.344 167.784 164.305 167.757C164.265 167.729 164.226 167.701 164.188 167.672C164.15 167.643 164.113 167.613 164.076 167.583C164.039 167.552 164.003 167.52 163.968 167.488C163.933 167.455 163.899 167.421 163.865 167.387C163.831 167.353 163.798 167.318 163.767 167.282C163.735 167.246 163.704 167.21 163.674 167.172C163.644 167.135 163.615 167.097 163.586 167.058C163.558 167.019 163.531 166.98 163.504 166.94C163.478 166.9 163.453 166.859 163.428 166.818C163.404 166.777 163.381 166.735 163.359 166.692C163.336 166.65 163.315 166.607 163.295 166.563C163.275 166.52 163.256 166.476 163.237 166.431C163.219 166.387 163.202 166.342 163.186 166.297C163.171 166.252 163.156 166.206 163.142 166.16C163.128 166.114 163.116 166.068 163.104 166.021C163.093 165.975 163.082 165.928 163.073 165.881C163.064 165.834 163.056 165.787 163.049 165.739C163.042 165.691 163.037 165.644 163.032 165.596C163.028 165.548 163.024 165.501 163.022 165.453C163.02 165.405 163.019 165.357 163.019 165.309C163.019 165.261 163.02 165.213 163.023 165.165C163.025 165.117 163.029 165.069 163.033 165.022C163.038 164.974 163.044 164.926 163.051 164.879C163.058 164.832 163.066 164.785 163.076 164.738C163.085 164.69 163.096 164.643 163.107 164.597C163.119 164.551 163.132 164.504 163.145 164.458C163.16 164.412 163.175 164.367 163.191 164.322C163.207 164.277 163.224 164.232 163.242 164.187C163.261 164.143 163.28 164.099 163.3 164.056C163.321 164.013 163.342 163.97 163.365 163.927C163.387 163.885 163.411 163.843 163.435 163.802C163.46 163.761 163.485 163.72 163.512 163.68C163.538 163.64 163.566 163.601 163.594 163.562C163.623 163.524 163.652 163.486 163.682 163.448C163.712 163.411 163.743 163.375 163.776 163.339C163.807 163.303 163.84 163.269 163.874 163.234C163.908 163.2 163.942 163.167 163.978 163.135C164.013 163.102 164.049 163.071 164.086 163.04C164.123 163.009 164.16 162.98 164.199 162.951C164.237 162.922 164.276 162.894 164.316 162.867C164.355 162.84 164.396 162.814 164.437 162.789C164.478 162.764 164.519 162.74 164.561 162.717C164.603 162.694 164.646 162.673 164.689 162.652C164.732 162.631 164.776 162.611 164.82 162.592C164.864 162.573 164.909 162.556 164.954 162.539Z" fill="#0C3661"/>
<path d="M5.32956 99.5825C5.04244 99.7919 4.7506 99.9934 4.45961 100.197C3.61673 100.787 2.22238 101.319 1.17534 101.005C0.681044 100.857 0.340626 100.649 0.130443 100.157C-0.121433 99.5679 0.0302967 98.7392 0.257672 98.1611C0.590354 97.3144 1.30729 96.3726 2.21851 96.1027C2.75708 95.9432 3.21828 95.9892 3.70011 96.2935C4.77166 96.9709 5.19288 98.2724 5.51868 99.4175L5.32956 99.5825Z" fill="#FAF6FA"/>
<path d="M99.8877 325.689L100.124 325.834C100.777 327.007 101.362 328.143 101.849 329.395C100.178 329.511 98.2023 329.606 96.5561 329.334L96.315 328.994C96.3098 328.634 96.3257 328.421 96.5054 328.096C97.1071 327.01 98.7362 326.056 99.8877 325.689Z" fill="#FAF6FA"/>
<circle cx="166" cy="163" r="14" fill="url(#paint0_linear_34_28)"/>
<defs>
<linearGradient id="paint0_linear_34_28" x1="166" y1="149" x2="166" y2="177" gradientUnits="userSpaceOnUse">
<stop stop-color="#FAF6FA"/>
<stop offset="1" stop-color="#E6FFF4"/>
</linearGradient>
</defs>
</svg>
